<svg width="24" height="27" viewBox="0 0 24 27" fill="none" xmlns="http://www.w3.org/2000/svg">
<rect width="24" height="27" rx="2" fill="white"/>
<g clip-path="url(#clip0_318_269)">
<path d="M17.4375 14C17.4375 14.1492 17.3782 14.2923 17.2727 14.3977C17.1673 14.5032 17.0242 14.5625 16.875 14.5625H12.5625V18.875C12.5625 19.0242 12.5032 19.1673 12.3977 19.2727C12.2923 19.3782 12.1492 19.4375 12 19.4375C11.8508 19.4375 11.7077 19.3782 11.6023 19.2727C11.4968 19.1673 11.4375 19.0242 11.4375 18.875V14.5625H7.125C6.97582 14.5625 6.83274 14.5032 6.72725 14.3977C6.62176 14.2923 6.5625 14.1492 6.5625 14C6.5625 13.8508 6.62176 13.7077 6.72725 13.6023C6.83274 13.4968 6.97582 13.4375 7.125 13.4375H11.4375V9.125C11.4375 8.97582 11.4968 8.83274 11.6023 8.72725C11.7077 8.62176 11.8508 8.5625 12 8.5625C12.1492 8.5625 12.2923 8.62176 12.3977 8.72725C12.5032 8.83274 12.5625 8.97582 12.5625 9.125V13.4375H16.875C17.0242 13.4375 17.1673 13.4968 17.2727 13.6023C17.3782 13.7077 17.4375 13.8508 17.4375 14Z" fill="#744444"/>
</g>
<defs>
<clipPath id="clip0_318_269">
<rect width="12" height="12" fill="white" transform="translate(6 8)"/>
</clipPath>
</defs>
</svg>
