<svg width="24" height="24" viewBox="0 0 24 24" fill="none" xmlns="http://www.w3.org/2000/svg">
<path d="M12.501 3.24702C12.349 3.15925 12.1765 3.11305 12.001 3.11305C11.8254 3.11305 11.653 3.15925 11.501 3.24702L4.00098 7.57702V20H8.50098V14C8.50098 13.7348 8.60633 13.4805 8.79387 13.2929C8.98141 13.1054 9.23576 13 9.50098 13H14.501C14.7662 13 15.0205 13.1054 15.2081 13.2929C15.3956 13.4805 15.501 13.7348 15.501 14V20H20.001V7.57702L12.501 3.24702ZM10.501 1.51502C10.957 1.25172 11.4744 1.1131 12.001 1.1131C12.5276 1.1131 13.0449 1.25172 13.501 1.51502L21.001 5.84502C21.305 6.02055 21.5575 6.27302 21.733 6.57705C21.9086 6.88108 22.001 7.22596 22.001 7.57702V21C22.001 21.2652 21.8956 21.5196 21.7081 21.7071C21.5205 21.8947 21.2662 22 21.001 22H14.501C14.2358 22 13.9814 21.8947 13.7939 21.7071C13.6063 21.5196 13.501 21.2652 13.501 21V15H10.501V21C10.501 21.2652 10.3956 21.5196 10.2081 21.7071C10.0205 21.8947 9.76619 22 9.50098 22H3.00098C2.73576 22 2.48141 21.8947 2.29387 21.7071C2.10633 21.5196 2.00098 21.2652 2.00098 21V7.57702C2.00099 7.22596 2.0934 6.88108 2.26894 6.57705C2.44447 6.27302 2.69695 6.02055 3.00098 5.84502L10.501 1.51502Z" fill="#B3B3B3"/>
</svg>
